<svg xmlns="http://www.w3.org/2000/svg" viewBox="0 0 32 32">
  <defs>
    <linearGradient id="p" x1="0" y1="0" x2="0" y2="1">
      <stop offset="0" stop-color="#ffbf80"/><stop offset="1" stop-color="#f08a3c"/>
    </linearGradient>
    <radialGradient id="n" cx="50%" cy="50%" r="50%">
      <stop offset="0" stop-color="#fff6e0"/><stop offset=".5" stop-color="#ffd27a"/><stop offset="1" stop-color="#ffd27a" stop-opacity="0"/>
    </radialGradient>
  </defs>
  <rect width="32" height="32" rx="8" fill="#0b0d13"/>
  <rect x=".5" y=".5" width="31" height="31" rx="7.5" fill="none" stroke="#ffffff" stroke-opacity=".12"/>
  <g transform="translate(16.4 16) scale(1.17) translate(-16.4 -16)">
  <g fill="none" stroke-width="2.7" stroke-linecap="round" stroke-linejoin="round">
    <path stroke="#eef0f5" d="M14.2 11.3C13.3 9.8 11.9 9 10.1 9 7.7 9 6 10.4 6 12.5c0 2.2 2 2.9 4.1 3.5 2.2.6 4.2 1.4 4.2 3.8 0 2.1-1.8 3.3-4.2 3.3-2 0-3.5-.8-4.5-2.4"/>
    <path stroke="url(#p)" d="M18.4 23V9h3.9c2.7 0 4.5 1.8 4.5 4.2s-1.8 4.2-4.5 4.2h-3.9"/>
  </g>
  <circle cx="22.4" cy="13.2" r="2.3" fill="url(#n)"/>
  </g>
</svg>
